<svg xmlns="http://www.w3.org/2000/svg" width="1257.071mm" height="200mm" viewBox="0 0 1257.071 200"><defs><clipPath id="a" clipPathUnits="userSpaceOnUse"><path d="M0 141.73h425.2V0H0Z"/></clipPath><clipPath id="b" clipPathUnits="userSpaceOnUse"><path d="M145.741 82.522c-6.536-.419-11.542-6.472-11.185-13.521.36-7.048 5.946-12.42 12.479-12.003 1.83.117 3.543.688 5.049 1.589-3.41 2.055-5.799 5.887-6.029 10.414-.256 5.067 2.261 9.621 6.121 11.935a11.063 11.063 0 0 1-5.732 1.608c-.233 0-.468-.007-.703-.022"/></clipPath><clipPath id="d" clipPathUnits="userSpaceOnUse"><path d="M0 141.73h425.2V0H0Z"/></clipPath><radialGradient id="c" cx="0" cy="0" r="1" fx="0" fy="0" gradientTransform="matrix(15.86643 0 0 -14.42408 148.504 69.996)" gradientUnits="userSpaceOnUse" spreadMethod="pad"><stop offset="0" style="stop-opacity:1;stop-color:#d3edfb"/><stop offset="0.534111" style="stop-opacity:1;stop-color:#57c3f1"/><stop offset="1" style="stop-opacity:1;stop-color:#009edd"/></radialGradient></defs><path d="M0 0h-1.879v-10.797H0v5.596h1.9v1.7H0Z" style="fill:#231916;fill-opacity:1;fill-rule:nonzero;stroke:none" transform="matrix(6.0273 0 0 -6.0273 790.365 7.787)"/><g clip-path="url(#a)" transform="matrix(6.0273 0 0 -6.0273 -631.195 520.79)"><path d="M0 0v3.327h-1.893V-.277c0-1.126.625-1.907 2.237-1.907h9.47v1.715H.344C-.021-.469 0-.277 0 0" style="fill:#231916;fill-opacity:1;fill-rule:nonzero;stroke:none" transform="translate(226.207 71.805)"/><path d="M0 0h.105C1.42 0 2.461-1.075 2.461-2.287A2.35 2.35 0 0 0 .105-4.644a2.33 2.33 0 0 0-2.361 2.357C-2.256-1.109-1.303-.052 0 0m.105-6.375c2.458 0 4.174 1.8 4.174 4.088A4.03 4.03 0 0 1 3.553 0H5.08v1.768H1.092v1.75H-.766v-1.75h-4.058V0h1.463a4.13 4.13 0 0 1-.709-2.287c0-2.288 1.695-4.088 4.175-4.088" style="fill:#231916;fill-opacity:1;fill-rule:nonzero;stroke:none" transform="translate(227.695 81.906)"/><path d="M0 0c0 1.108-.625 1.891-2.254 1.891h-8.851V.209h8.851c.383 0 .383-.138.383-.433v-3.813h-10.6v-1.698h6.016v-2.202h1.871v2.202h6.092v1.698H0Z" style="fill:#231916;fill-opacity:1;fill-rule:nonzero;stroke:none" transform="translate(251.074 83.032)"/><path d="M0 0h-8.852v-1.682H0c.383 0 .383-.138.383-.433V-5.49h1.871v3.6C2.254-.781 1.629 0 0 0" style="fill:#231916;fill-opacity:1;fill-rule:nonzero;stroke:none" transform="translate(248.82 75.094)"/><path d="M0 0h-1.871v-5.772H-9.67c-.363 0-.363.122-.363.397V-.19h-1.858v-5.391c0-1.109.612-1.89 2.221-1.89h7.799v-.968H0v3.724h1.871v1.682H0Z" style="fill:#231916;fill-opacity:1;fill-rule:nonzero;stroke:none" transform="translate(266.273 85.113)"/><path d="M0 0c0-1.484-1.234-2.693-2.791-2.693C-4.389-2.695-5.586-1.486-5.586 0c0 1.347 1.133 2.555 2.67 2.615h.125C-1.234 2.615 0 1.388 0 0m-1.844 5.974h4.719v1.717h-9.078c-.381 0-.381.137-.381.397v1.976h9.303v1.699H-8.457v-3.88c0-1.131.625-1.909 2.254-1.909h2.486V4.762h-6.111V3.027h3.68c-.803-.796-1.286-1.869-1.286-3 0-2.472 1.987-4.482 4.647-4.482 2.584 0 4.635 2.01 4.635 4.482 0 1.135-.5 2.205-1.315 3h3.709v1.735h-6.086z" style="fill:#231916;fill-opacity:1;fill-rule:nonzero;stroke:none" transform="translate(278.74 73.16)"/><path d="M0 0v.447h9.973l.023.499v1.901c0 1.108-.605 1.889-2.234 1.889l-9.635-.025V3.012l9.635.009c.365 0 .365-.106.365-.382v-.451l-.023-.042h-9.977V-.209c0-1.111.605-1.891 2.238-1.891h9.783v1.716H.365C0-.384 0-.279 0 0" style="fill:#231916;fill-opacity:1;fill-rule:nonzero;stroke:none" transform="translate(286.666 71.703)"/><path d="M0 0v1.629h5.051V-.38H.363C.016-.38 0-.276 0 0m6.922-2.043v7.711H5.051V3.277H0v2.391h-1.869V-.207c0-1.074.621-1.836 2.232-1.836z" style="fill:#231916;fill-opacity:1;fill-rule:nonzero;stroke:none" transform="translate(286.147 79.445)"/><path d="M0 0h-1.869v-7.937H0v3.276h1.869v1.697H0Z" style="fill:#231916;fill-opacity:1;fill-rule:nonzero;stroke:none" transform="translate(296.639 85.113)"/><path d="M0 0h3.137v-5.806H5.01V5.008H3.137V1.697H0Z" style="fill:#231916;fill-opacity:1;fill-rule:nonzero;stroke:none" transform="translate(307.34 80.106)"/><path d="M0 0c.812-1.352 2.766-2.772 4.258-3.293l.969 1.299C2.902-.867.918.848.918 2.944v.488h3.771v1.731h-9.087V3.432h3.461v-.488C-.937.848-2.875-.953-5.16-2.08l1.004-1.316C-2.664-2.842-.797-1.352 0 0" style="fill:#231916;fill-opacity:1;fill-rule:nonzero;stroke:none" transform="translate(304.055 79.707)"/><path d="M0 0c-.365 0-.348.189-.348.467v2.631l6.93-.003c.361 0 .342-.189.342-.466V0Zm8.816 2.906c-.002 1.125-.627 1.906-2.236 1.906l-6.928.001h-1.89V3.098h.004V.189c0-1.126.619-1.906 2.234-1.906h6.926v-.002h1.89V0Z" style="fill:#231916;fill-opacity:1;fill-rule:nonzero;stroke:none" transform="translate(257.46 71.338)"/><path d="M0 0v3.645h-1.893V-.277c0-1.127.625-1.906 2.235-1.906h9.482v1.716H.342C-.021-.467 0-.277 0 0" style="fill:#231916;fill-opacity:1;fill-rule:nonzero;stroke:none" transform="translate(302.525 71.822)"/><path d="m0 0-4.133 4.443 3.871 3.62c.053.048.069.105-.006.105h-1.763c-.045 0-.065-.018-.096-.049L-5.49 4.865v3.202c0 .097-.002.101-.098.101h-1.291c-.096 0-.1-.029-.1-.101V.049c0-.121.004-.125.1-.125h1.291c.096 0 .098.004.098.099v3.921L-2.324.398c.408-.442.699-.474 1.101-.474h1.178c.033 0 .098.011.045.076" style="fill:#231916;fill-opacity:1;fill-rule:nonzero;stroke:none" transform="translate(231.293 56.348)"/><path d="M0 0h-4.141v2.411h3.737c.093 0 .099.004.099.102v1.009c0 .098-.006.102-.099.102h-3.737v2.141h3.973c.096 0 .1.003.1.099v1.034c0 .097-.004.101-.1.101h-5.246c-.096 0-.098-.004-.098-.101v-8.044c0-.095.002-.099.098-.099H0c.096 0 .1.004.1.099V-.1C.1-.004.096 0 0 0" style="fill:#231916;fill-opacity:1;fill-rule:nonzero;stroke:none" transform="translate(254.191 57.517)"/><path d="M0 0a2.972 2.972 0 0 0-.576-.975 2.731 2.731 0 0 0-.914-.65 3.044 3.044 0 0 0-1.198-.235c-.433 0-.841.082-1.183.235a2.67 2.67 0 0 0-.906.65c-.252.28-.45.61-.58.975a3.464 3.464 0 0 0-.209 1.204c0 .415.072.815.209 1.187.13.364.326.692.576.978.246.276.545.497.9.66.354.159.756.241 1.195.241.44 0 .842-.082 1.2-.239A2.797 2.797 0 0 0 0 2.391a3.34 3.34 0 0 0 .207-1.187C.207.777.139.371 0 0m.436 4.326a4.076 4.076 0 0 1-1.385.877 4.796 4.796 0 0 1-1.739.314 4.799 4.799 0 0 1-1.736-.314 4.18 4.18 0 0 1-1.379-.877 4 4 0 0 1-.906-1.365 4.577 4.577 0 0 1-.326-1.757c0-.63.107-1.218.326-1.747.213-.523.518-.984.906-1.374.387-.382.85-.682 1.379-.894a4.65 4.65 0 0 1 1.738-.322c.623 0 1.209.11 1.737.322.535.212 1 .514 1.385.894.386.382.693.845.914 1.374.218.529.33 1.117.33 1.747 0 .636-.112 1.227-.33 1.759a4.05 4.05 0 0 1-.914 1.363" style="fill:#231916;fill-opacity:1;fill-rule:nonzero;stroke:none" transform="translate(237.932 59.201)"/><path d="m0 0 .082.21 1.043 2.559L2.27 0Zm5.072-3.165L1.736 4.896c-.027.064-.041.107-.111.107h-.98c-.071 0-.086-.043-.114-.107L-2.77-3.138c-.027-.066-.021-.103.055-.103h.897c.277 0 .525.039.72.515l.614 1.492h3.261l.612-1.492c.195-.476.443-.515.72-.515h.914c.049 0 .077.011.049.076" style="fill:#231916;fill-opacity:1;fill-rule:nonzero;stroke:none" transform="translate(258.053 59.513)"/><path d="M0 0h1.156c.254 0 .41-.087.576-.328l1.932-3.156L5.629-.305c.154.221.308.305.562.305h1.1c.066 0 .139.006.094-.059L4.344-4.65l-.022-.037v-3.458c0-.095-.027-.099-.123-.099H3.064c-.095 0-.123.004-.123.099v3.459L-.064-.133C-.125-.045-.115 0 0 0" style="fill:#231916;fill-opacity:1;fill-rule:nonzero;stroke:none" transform="translate(305.887 64.516)"/><path d="m0 0-.752-.782c-.033-.033-.074-.083-.164 0a3.129 3.129 0 0 1-.891.607 3.076 3.076 0 0 1-1.191.228c-.445 0-.865-.086-1.215-.243a2.792 2.792 0 0 1-.922-.663 3.04 3.04 0 0 1-.584-.982 3.423 3.423 0 0 1-.207-1.192c0-.423.069-.831.207-1.209a2.92 2.92 0 0 1 .584-.98c.252-.277.565-.496.93-.652a3.096 3.096 0 0 1 1.236-.238c.371 0 .709.033 1.01.097.225.05.441.117.633.203l.09.045v2.022h-1.67c-.094 0-.098.004-.098.099v1c0 .096.004.102.098.102H.027c.096 0 .098-.006.098-.102v-3.893c0-.065-.033-.098-.09-.126a5.818 5.818 0 0 0-1.383-.52 7.113 7.113 0 0 0-1.656-.183c-.639 0-1.234.107-1.767.318a4.146 4.146 0 0 0-1.393.896c-.385.382-.69.846-.906 1.374a4.607 4.607 0 0 0-.326 1.747c0 .633.111 1.225.33 1.758.222.534.533.991.92 1.364.39.374.859.671 1.39.88a4.802 4.802 0 0 0 1.74.311c.655 0 1.243-.098 1.756-.29A3.943 3.943 0 0 0-.006.247C.076.173.115.146.082.091.061.051 0 0 0 0" style="fill:#231916;fill-opacity:1;fill-rule:nonzero;stroke:none" transform="translate(305.176 63.382)"/><path d="M0 0h-1.145c-.095 0-.123-.004-.123-.101v-6.162l-.291.454-.023.034c-.568.884-2.488 3.871-3.297 5.07l-.053.088c-.341.516-.654.617-1.08.617h-.875c-.095 0-.097-.004-.097-.101v-8.02c0-.096-.006-.123.072-.123h1.223c.07 0 .074.002.074.099v6.157l3.662-5.639c.344-.517.656-.617 1.08-.617H0c.098 0 .1.002.1.123v8.047C.1-.004.098 0 0 0" style="fill:#231916;fill-opacity:1;fill-rule:nonzero;stroke:none" transform="translate(281.691 64.516)"/><path d="M0 0a3.656 3.656 0 0 0-.707-.065h-1.49v2.299h1.57c.232 0 .453-.02.664-.06.201-.038.377-.104.525-.192a.977.977 0 0 0 .346-.348c.086-.139.129-.32.129-.538C1.037.879.994.697.908.557A.977.977 0 0 0 .553.204 1.767 1.767 0 0 0 0 0m.557-1.109.199.058c.428.13.795.342 1.084.635.383.383.578.893.578 1.512 0 .429-.08.796-.238 1.092-.16.297-.381.543-.657.73a2.836 2.836 0 0 1-.951.395c-.355.08-.732.123-1.123.123h-2.89c-.096 0-.125-.03-.125-.125v-7.997c0-.096.029-.123.125-.123h1.119c.095 0 .125.027.125.123v3.434h1.324l.045-.079L.779-4.143c.295-.508.467-.666.967-.666h.986c.063 0 .055.043.024.096z" style="fill:#231916;fill-opacity:1;fill-rule:nonzero;stroke:none" transform="translate(294.41 61.08)"/><path d="M0 0a3.692 3.692 0 0 0-.709-.065h-1.49v2.297h1.57c.231 0 .455-.019.664-.06.201-.038.379-.102.527-.19a1.04 1.04 0 0 0 .346-.349c.084-.14.129-.321.129-.539 0-.217-.045-.399-.129-.54A1.018 1.018 0 0 0 .551.203 1.754 1.754 0 0 0 0 0m.555-1.11.199.059c.43.127.793.342 1.084.634.385.383.578.892.578 1.511 0 .429-.08.796-.24 1.094a2.01 2.01 0 0 1-.655.728 2.88 2.88 0 0 1-.951.397c-.353.08-.732.121-1.121.121h-2.894c-.094 0-.123-.03-.123-.124v-7.996c0-.096.029-.125.123-.125h1.121c.097 0 .125.029.125.125v3.432h1.324l.045-.078L.775-4.145c.297-.508.469-.666.969-.666h.986c.063 0 .057.043.026.097z" style="fill:#231916;fill-opacity:1;fill-rule:nonzero;stroke:none" transform="translate(244.438 61.082)"/><path d="M0 0h-4.141v2.411h3.735c.097 0 .099.003.099.1v1.011c0 .096-.002.1-.099.1h-3.735v2.143h3.973c.094 0 .1.003.1.097v1.036c0 .097-.006.101-.1.101h-5.246c-.096 0-.098-.004-.098-.101v-8.044c0-.097.002-.099.098-.099H0c.096 0 .1.004.1.099V-.1C.1-.005.096 0 0 0" style="fill:#231916;fill-opacity:1;fill-rule:nonzero;stroke:none" transform="translate(273.057 57.517)"/><path d="M0 0h-4.143v2.411h3.737c.094 0 .097.003.097.1v1.011c0 .096-.003.1-.097.1h-3.737v2.143H-.17c.096 0 .1.003.1.097v1.036c0 .097-.004.101-.1.101h-5.244c-.094 0-.1-.004-.1-.101v-8.044c0-.095.006-.099.1-.099H0c.096 0 .098.004.098.099V-.1C.098-.005.096 0 0 0" style="fill:#231916;fill-opacity:1;fill-rule:nonzero;stroke:none" transform="translate(289.195 57.517)"/></g><g clip-path="url(#b)" transform="matrix(6.0273 0 0 -6.0273 -631.195 520.79)"><path d="M145.741 82.522c-6.536-.419-11.542-6.472-11.185-13.521.36-7.048 5.946-12.42 12.479-12.003 1.83.117 3.543.688 5.049 1.589-3.41 2.055-5.799 5.887-6.029 10.414-.256 5.067 2.261 9.621 6.121 11.935a11.063 11.063 0 0 1-5.732 1.608c-.233 0-.468-.007-.703-.022" style="fill:url(#c);stroke:none"/></g><g clip-path="url(#d)" transform="matrix(6.0273 0 0 -6.0273 -631.195 520.79)"><path d="M0 0a83.942 83.942 0 0 1-2.754-1.81c-.766-.526-.887-.661-.492-1.748a.192.192 0 0 0 .008-.03c.425-1.203.619-2.667.687-4.021.36-7.048-4.648-13.103-11.179-13.522-6.534-.417-12.12 4.955-12.479 12.003-.357 7.049 4.648 13.102 11.184 13.521 2.386.152 4.646-.471 6.574-1.665.008-.003.013-.008.021-.011.061-.042.119-.088.18-.135.076-.042.148-.082.23-.139C-5.607.794-5.371.476-2.406.476H-.1C.379.476.34.211 0 0m3.049-15.91c-.32 0-.449.058-.379.467l.758 4.138.099.51c.051.346.182.399.412.399h13.6c.645 0 .654.46.736 1.011l.647 4.293c.049.363.041.604-.438.604H5.176c-.322 0-.453.059-.379.467L5.555.116c.049.346.181.396.412.396H16.34c2.121 0 4.781.54 5.349 3.955l.215 1.698c.033.306.051.616-.427.616H-4.285c0-.003-.43-.046-1.438.318-1.554.516-3.55.906-4.965 1.058-10.943 1.172-18.4-6.441-18.644-16.074-.182-7.04 4.867-16.989 16.025-16.989 4.143 0 7.553.952 10.912 2.38.944.401 1.45.618 2.104.618h17.465c.564 0 .711.164.791.714l.717 4.697c.039.246.078.586-.368.586H3.33Z" style="fill:#004099;fill-opacity:1;fill-rule:nonzero;stroke:none" transform="translate(160.766 78.129)"/><path d="m0 0-.451 1.391c-.012.025-.018.046-.024.065l-5.443 16.746c-.906 2.596-1.994 3.733-4.816 3.733h-6.67c-.494 0-.696-.102-.766-.584L-22.383-6.24c-.062-.394.135-.515.457-.515h6.041c.383 0 .531.146.606.613l3.312 21.98s.088.214.16-.014c.703-2.206 4.537-14.201 5.942-18.489.916-2.796 2.861-4.09 5.683-4.09h5.614c.457 0 .691.277.763.75C7.227.809 10.41 21.368 10.41 21.368c.067.38-.176.567-.488.567H3.84c-.492 0-.736-.102-.807-.584L.148-.007C.125-.114.041-.125 0 0" style="fill:#004099;fill-opacity:1;fill-rule:nonzero;stroke:none" transform="translate(203.182 62.976)"/><path d="M0 0s-1.629-10.297-2.178-13.729c-.07-.452-.17-.737-.636-.737h-6.813c-.281 0-.551.146-.521.489l4.07 27.698c.047.31.262.467.539.467H1.48c.311 0 .508-.206.459-.479L.184 1.449c-.024-.147.117-.212.25-.083l11.32 12.166c.41.452.672.49 1.228.49h7.825c.277 0 .425-.249.187-.543L9.031.59c-.246-.278-.093-.423.115-.755L19.297-13.88c.123-.173.146-.301.103-.395-.043-.131-.17-.191-.367-.191H15.6c-2.643 0-4.965-.085-7.61 3.651L.303.019C.227.155.053.288 0 0" style="fill:#004099;fill-opacity:1;fill-rule:nonzero;stroke:none" transform="translate(114.873 70.697)"/></g></svg>