<svg xmlns="http://www.w3.org/2000/svg" width="434.08389mm" height="132.29167mm" viewBox="0 0 434.08388 132.29167"><defs><clipPath id="a" clipPathUnits="userSpaceOnUse"><path d="M145.741 82.522c-6.536-.419-11.542-6.472-11.185-13.521.36-7.048 5.946-12.42 12.479-12.003 1.83.117 3.543.688 5.049 1.589-3.41 2.055-5.799 5.887-6.029 10.414-.256 5.067 2.261 9.621 6.121 11.935a11.063 11.063 0 0 1-5.732 1.608c-.233 0-.468-.007-.703-.022"/></clipPath><clipPath id="c" clipPathUnits="userSpaceOnUse"><path d="M0 141.73h425.2V0H0Z"/></clipPath><radialGradient id="b" cx="0" cy="0" r="1" fx="0" fy="0" gradientTransform="matrix(15.86643 0 0 -14.42408 148.504 69.996)" gradientUnits="userSpaceOnUse" spreadMethod="pad"><stop offset="0" style="stop-opacity:1;stop-color:#d3edfb"/><stop offset="0.534111" style="stop-opacity:1;stop-color:#57c3f1"/><stop offset="1" style="stop-opacity:1;stop-color:#009edd"/></radialGradient></defs><g clip-path="url(#a)" transform="matrix(3.9868 0 0 -3.9868 -417.51 344.481)"><path d="M145.741 82.522c-6.536-.419-11.542-6.472-11.185-13.521.36-7.048 5.946-12.42 12.479-12.003 1.83.117 3.543.688 5.049 1.589-3.41 2.055-5.799 5.887-6.029 10.414-.256 5.067 2.261 9.621 6.121 11.935a11.063 11.063 0 0 1-5.732 1.608c-.233 0-.468-.007-.703-.022" style="fill:url(#b);stroke:none"/></g><g clip-path="url(#c)" transform="matrix(3.9868 0 0 -3.9868 -417.51 344.481)"><path d="M0 0a83.942 83.942 0 0 1-2.754-1.81c-.766-.526-.887-.661-.492-1.748a.192.192 0 0 0 .008-.03c.425-1.203.619-2.667.687-4.021.36-7.048-4.648-13.103-11.179-13.522-6.534-.417-12.12 4.955-12.479 12.003-.357 7.049 4.648 13.102 11.184 13.521 2.386.152 4.646-.471 6.574-1.665.008-.003.013-.008.021-.011.061-.042.119-.088.18-.135.076-.042.148-.082.23-.139C-5.607.794-5.371.476-2.406.476H-.1C.379.476.34.211 0 0m3.049-15.91c-.32 0-.449.058-.379.467l.758 4.138.099.51c.051.346.182.399.412.399h13.6c.645 0 .654.46.736 1.011l.647 4.293c.049.363.041.604-.438.604H5.176c-.322 0-.453.059-.379.467L5.555.116c.049.346.181.396.412.396H16.34c2.121 0 4.781.54 5.349 3.955l.215 1.698c.033.306.051.616-.427.616H-4.285c0-.003-.43-.046-1.438.318-1.554.516-3.55.906-4.965 1.058-10.943 1.172-18.4-6.441-18.644-16.074-.182-7.04 4.867-16.989 16.025-16.989 4.143 0 7.553.952 10.912 2.38.944.401 1.45.618 2.104.618h17.465c.564 0 .711.164.791.714l.717 4.697c.039.246.078.586-.368.586H3.33Z" style="fill:#004099;fill-opacity:1;fill-rule:nonzero;stroke:none" transform="translate(160.766 78.129)"/><path d="m0 0-.451 1.391c-.012.025-.018.046-.024.065l-5.443 16.746c-.906 2.596-1.994 3.733-4.816 3.733h-6.67c-.494 0-.696-.102-.766-.584L-22.383-6.24c-.062-.394.135-.515.457-.515h6.041c.383 0 .531.146.606.613l3.312 21.98s.088.214.16-.014c.703-2.206 4.537-14.201 5.942-18.489.916-2.796 2.861-4.09 5.683-4.09h5.614c.457 0 .691.277.763.75C7.227.809 10.41 21.368 10.41 21.368c.067.38-.176.567-.488.567H3.84c-.492 0-.736-.102-.807-.584L.148-.007C.125-.114.041-.125 0 0" style="fill:#004099;fill-opacity:1;fill-rule:nonzero;stroke:none" transform="translate(203.182 62.976)"/><path d="M0 0s-1.629-10.297-2.178-13.729c-.07-.452-.17-.737-.636-.737h-6.813c-.281 0-.551.146-.521.489l4.07 27.698c.047.31.262.467.539.467H1.48c.311 0 .508-.206.459-.479L.184 1.449c-.024-.147.117-.212.25-.083l11.32 12.166c.41.452.672.49 1.228.49h7.825c.277 0 .425-.249.187-.543L9.031.59c-.246-.278-.093-.423.115-.755L19.297-13.88c.123-.173.146-.301.103-.395-.043-.131-.17-.191-.367-.191H15.6c-2.643 0-4.965-.085-7.61 3.651L.303.019C.227.155.053.288 0 0" style="fill:#004099;fill-opacity:1;fill-rule:nonzero;stroke:none" transform="translate(114.873 70.697)"/></g></svg>